# xmcd
#
# Track frame offsets:
# 150
# 26234
# 54799
# 74572
# 102948
# 124977
# 153508
# 173537
#
# Disc length: 2745 seconds
#
#
# Revision: 0
# Processed by: cddbd v1.5.2PL0 Copyright (c) Steve Scherf et al.
# Submitted via: Nero 7, 11, 10, 0 
#
DISCID=670ab708
DTITLE=Gil Parris - Live At The Next Door Cafe
DYEAR=2005
DGENRE=Blues
TTITLE0=Sister Sadie
TTITLE1=Ain't No Sunshine
TTITLE2=Oblivion Express
TTITLE3=Hank and David
TTITLE4=Blue Thumb
TTITLE5=Ol' Soul
TTITLE6=Double The Trouble
TTITLE7=Sex Machine
EXTD=
EXTT0=Sister Sadie
EXTT1=Ain't No Sunshine
EXTT2=Oblivion Express
EXTT3=Hank and David
EXTT4=Blue Thumb
EXTT5=Ol' Soul
EXTT6=Double The Trouble
EXTT7=Sex Machine
PLAYORDER=
